<svg width="24" height="22" viewBox="0 0 24 22" fill="none" xmlns="http://www.w3.org/2000/svg">
<path d="M1 11L3.44444 8.77778M3.44444 8.77778L12 1L20.5556 8.77778M3.44444 8.77778V19.8889C3.44444 20.5026 3.99166 21 4.66667 21H8.33333M20.5556 8.77778L23 11M20.5556 8.77778V19.8889C20.5556 20.5026 20.0084 21 19.3333 21H15.6667M8.33333 21C9.00834 21 9.55556 20.5026 9.55556 19.8889V15.4444C9.55556 14.8308 10.1027 14.3333 10.7778 14.3333H13.2222C13.8973 14.3333 14.4444 14.8308 14.4444 15.4444V19.8889C14.4444 20.5026 14.9916 21 15.6667 21M8.33333 21H15.6667" stroke="#4548A9" stroke-width="2" stroke-linecap="round" stroke-linejoin="round"/>
</svg>
