<svg width="27" height="28" viewBox="0 0 27 28" fill="none" xmlns="http://www.w3.org/2000/svg">
<path d="M20.25 24.5C22.114 24.5 23.625 22.933 23.625 21C23.625 19.067 22.114 17.5 20.25 17.5C18.386 17.5 16.875 19.067 16.875 21C16.875 22.933 18.386 24.5 20.25 24.5Z" stroke="#4548A9" stroke-width="2" stroke-linecap="round" stroke-linejoin="round"/>
<path d="M6.75 10.5C8.61396 10.5 10.125 8.933 10.125 7C10.125 5.067 8.61396 3.5 6.75 3.5C4.88604 3.5 3.375 5.067 3.375 7C3.375 8.933 4.88604 10.5 6.75 10.5Z" stroke="#4548A9" stroke-width="2" stroke-linecap="round" stroke-linejoin="round"/>
<path d="M14.625 7H18C18.5967 7 19.169 7.24583 19.591 7.68342C20.0129 8.121 20.25 8.71449 20.25 9.33333V17.5" stroke="#4548A9" stroke-width="2" stroke-linecap="round" stroke-linejoin="round"/>
<path d="M6.75 10.5V24.5" stroke="#4548A9" stroke-width="2" stroke-linecap="round" stroke-linejoin="round"/>
</svg>
